<svg width="28" height="28" viewBox="0 0 28 28" fill="none" xmlns="http://www.w3.org/2000/svg">
<path d="M23.3333 13.9997V8.30868H25.6666V15.1379H23.3333M23.3333 19.6908H25.6666V17.4144H23.3333M11.6666 15.1379C14.7816 15.1379 21 16.6631 21 19.6908V23.1054H2.33331V19.6908C2.33331 16.6631 8.55165 15.1379 11.6666 15.1379ZM11.6666 4.89404C12.9043 4.89404 14.0913 5.37372 14.9665 6.22754C15.8416 7.08136 16.3333 8.2394 16.3333 9.44689C16.3333 10.6544 15.8416 11.8124 14.9665 12.6662C14.0913 13.5201 12.9043 13.9997 11.6666 13.9997C10.429 13.9997 9.24198 13.5201 8.36682 12.6662C7.49164 11.8124 6.99998 10.6544 6.99998 9.44689C6.99998 8.2394 7.49164 7.08136 8.36682 6.22754C9.24198 5.37372 10.429 4.89404 11.6666 4.89404ZM11.6666 17.3005C8.20165 17.3005 4.54998 18.9623 4.54998 19.6908V20.9428H18.7833V19.6908C18.7833 18.9623 15.1316 17.3005 11.6666 17.3005ZM11.6666 7.05664C11.0169 7.05664 10.3937 7.30847 9.93424 7.75673C9.47477 8.20499 9.21665 8.81296 9.21665 9.44689C9.21665 10.0808 9.47477 10.6888 9.93424 11.137C10.3937 11.5853 11.0169 11.8371 11.6666 11.8371C12.3164 11.8371 12.9396 11.5853 13.3991 11.137C13.8585 10.6888 14.1166 10.0808 14.1166 9.44689C14.1166 8.81296 13.8585 8.20499 13.3991 7.75673C12.9396 7.30847 12.3164 7.05664 11.6666 7.05664Z" fill="#FF5722"/>
</svg>
