<svg width="28" height="28" viewBox="0 0 28 28" fill="none" xmlns="http://www.w3.org/2000/svg">
<path d="M25.2356 19.0656H8.95237L9.76995 17.4409L23.3543 17.4169C23.8137 17.4169 24.2074 17.0968 24.2895 16.654L26.1707 6.38073C26.2199 6.11129 26.1461 5.83385 25.9656 5.62311C25.8765 5.51939 25.7652 5.43584 25.6396 5.37826C25.514 5.32068 25.3771 5.29044 25.2383 5.28965L7.95706 5.23362L7.8094 4.55603C7.71643 4.12387 7.31721 3.80908 6.86331 3.80908H2.6387C2.3827 3.80908 2.13719 3.9083 1.95617 4.0849C1.77516 4.2615 1.67346 4.50102 1.67346 4.75077C1.67346 5.00053 1.77516 5.24005 1.95617 5.41665C2.13719 5.59325 2.3827 5.69247 2.6387 5.69247H6.08127L6.72659 8.68561L8.31526 16.1898L6.26995 19.447C6.16373 19.5869 6.09975 19.753 6.08526 19.9265C6.07076 20.1 6.10632 20.2739 6.18791 20.4287C6.35198 20.7462 6.68284 20.9463 7.04924 20.9463H8.76643C8.40035 21.4207 8.20261 21.9984 8.20315 22.5922C8.20315 24.1021 9.46096 25.3293 11.0086 25.3293C12.5563 25.3293 13.8141 24.1021 13.8141 22.5922C13.8141 21.9973 13.6117 21.4185 13.2508 20.9463H17.6559C17.2898 21.4207 17.0921 21.9984 17.0926 22.5922C17.0926 24.1021 18.3504 25.3293 19.8981 25.3293C21.4457 25.3293 22.7035 24.1021 22.7035 22.5922C22.7035 21.9973 22.5012 21.4185 22.1403 20.9463H25.2383C25.7688 20.9463 26.2035 20.5248 26.2035 20.0046C26.202 19.7551 26.0993 19.5163 25.9179 19.3404C25.7366 19.1645 25.4913 19.0657 25.2356 19.0656ZM8.35901 7.09033L24.1035 7.14102L22.5613 15.5656L10.1938 15.5869L8.35901 7.09033ZM11.0086 23.4352C10.5328 23.4352 10.1446 23.0564 10.1446 22.5922C10.1446 22.1281 10.5328 21.7493 11.0086 21.7493C11.4844 21.7493 11.8727 22.1281 11.8727 22.5922C11.8727 22.8158 11.7816 23.0302 11.6196 23.1883C11.4576 23.3464 11.2378 23.4352 11.0086 23.4352ZM19.8981 23.4352C19.4223 23.4352 19.034 23.0564 19.034 22.5922C19.034 22.1281 19.4223 21.7493 19.8981 21.7493C20.3739 21.7493 20.7621 22.1281 20.7621 22.5922C20.7621 22.8158 20.6711 23.0302 20.5091 23.1883C20.347 23.3464 20.1272 23.4352 19.8981 23.4352Z" fill="#FF5722"/>
</svg>
